<svg viewBox="0 0 90 90" xmlns="http://www.w3.org/2000/svg"><path d="m55.31 68.35h28.12v19.85h-28.12z" fill="#94d5d2"/><path d="m48.86 42.65h-17.09a1.44 1.44 0 0 0 -1 .42l-25.65 25.52a1.41 1.41 0 0 0 0 2l17.1 17a1.42 1.42 0 0 0 1 .42 1.44 1.44 0 0 0 1-.42l25.65-25.5a1.41 1.41 0 0 0 .42-1v-17a1.42 1.42 0 0 0 -1.43-1.44z" fill="#ff8898"/><g fill="#ffeb97"><path d="m15.59 68.36c1.28-1.28 2.7-1.17 4 .17l.26.26-1.2 1.21-.35-.35c-.6-.6-1.06-.58-1.48-.17s-.43.88.17 1.48c1.72 1.72 4.61-.53 7 1.86 1.34 1.34 1.43 2.77.14 4.06s-2.72 1.19-4.06-.14l-.51-.51 1.24-1.23.6.6c.59.6 1.07.55 1.49.13s.46-.9-.13-1.49c-1.72-1.72-4.61.52-7-1.86-1.34-1.32-1.45-2.74-.17-4.02z"/><path d="m31.58 69.27-1.32 1.33-1.74-1.29-1.62 1.61 1.29 1.74-1.19 1.21-7-9.69 1.92-1.92zm-5.64.35 1.26-1.26-4.86-3.59z"/><path d="m24.43 59.72 1.31-1.31 7.16 7.16 2.16-2.16 1.19 1.19-3.47 3.47z"/><path d="m33.91 57.28 1.8-1.8 1.19 1.19-1.8 1.8 2.45 2.45 2.27-2.27 1.18 1.2-3.58 3.58-8.35-8.35 3.58-3.58 1.19 1.19-2.26 2.31z"/></g><g fill="#576065"><path d="m82 54.14h-31.72a1.8 1.8 0 0 1 0-3.6h31.72c.46 0 1.14-.6 1.42-1.56.5-1.72-.48-3.57-2.63-5l-31.92-16.47a1.8 1.8 0 0 1 -1-1.6v-9a1.8 1.8 0 0 1 1.8-1.8c3.8 0 7.52-2.84 7.52-5.73a5.63 5.63 0 0 0 -5.62-5.78 5.73 5.73 0 0 0 -5.71 5.73 1.8 1.8 0 1 1 -3.6 0 9.28 9.28 0 1 1 18.56 0c0 4.74-4.62 8.41-9.32 9.18v6.3l31.05 16.1c4.35 2.79 5 6.5 4.29 9.08a5.4 5.4 0 0 1 -4.84 4.15z"/><path d="m21.42 54.14a5.57 5.57 0 0 1 -5-4.28c-1-3.3.54-6.61 4-8.86l21.21-13.59a1.8 1.8 0 0 1 1.94 3l-21.18 13.59c-2.11 1.36-3 3.11-2.54 4.82a2.17 2.17 0 0 0 1.57 1.7 1.8 1.8 0 1 1 0 3.6z"/><path d="m23.22 89.83a3.21 3.21 0 0 1 -2.27-.94l-17.1-17a3.21 3.21 0 0 1 0-4.55l25.64-25.55a3.22 3.22 0 0 1 2.28-.94h17.09a3.22 3.22 0 0 1 3.22 3.22v17a3.23 3.23 0 0 1 -1 2.28l-25.58 25.54a3.24 3.24 0 0 1 -2.28.94zm-16.56-20.24 16.56 16.49 25.26-25.16v-16.47h-16.56z"/></g><ellipse cx="42.11" cy="50.75" fill="#fff" rx="3.26" ry="3.24"/><g fill="#576065"><path d="m42.11 55.12a4.38 4.38 0 0 1 -4.38-4.37 4.37 4.37 0 0 1 4.38-4.37 4.37 4.37 0 1 1 0 8.74zm0-6.49a2.12 2.12 0 0 0 -1.51.62 2.09 2.09 0 0 0 -.6 1.5 2.13 2.13 0 1 0 2.13-2.12z"/><path d="m42.5 51.34a1.8 1.8 0 0 1 -1.8-1.8 4.08 4.08 0 0 0 -.7-1.28 8.53 8.53 0 0 1 -1.81-4.26c-.12-1.35.71-3 2.17-5.78 1.13-2.16 3.24-6.17 2.71-7.35 0-.1-.25-.17-.42-.22a1.8 1.8 0 0 1 .87-3.49 4 4 0 0 1 2.83 2.24c1.25 2.78-.81 6.7-2.81 10.5a20.44 20.44 0 0 0 -1.77 3.87 5.21 5.21 0 0 0 1.16 2.43 5.82 5.82 0 0 1 1.37 3.34 1.8 1.8 0 0 1 -1.8 1.8z"/><path d="m83.43 90h-28.12a1.8 1.8 0 0 1 -1.8-1.8v-19.85a1.8 1.8 0 0 1 1.8-1.8h28.12a1.8 1.8 0 0 1 1.8 1.8v19.85a1.8 1.8 0 0 1 -1.8 1.8zm-26.32-3.6h24.52v-16.25h-24.52z"/><path d="m69.49 69.1h-.18c-.71-.07-7-.76-9.66-3.43a5.81 5.81 0 0 1 0-8.19 5.93 5.93 0 0 1 8.2 0c2.67 2.67 3.36 9 3.43 9.66a1.8 1.8 0 0 1 -1.79 2zm-5.74-9.73a2.19 2.19 0 0 0 -1.55 3.75c.94.94 3.2 1.63 5.13 2-.41-2-1.1-4.2-2-5.13a2.17 2.17 0 0 0 -1.58-.63z"/><path d="m69.49 69.1a1.8 1.8 0 0 1 -1.79-2c.07-.71.77-7 3.44-9.66a5.93 5.93 0 0 1 8.19 0 5.81 5.81 0 0 1 0 8.19c-2.67 2.67-9 3.37-9.66 3.44zm5.74-9.73a2.18 2.18 0 0 0 -1.55.64c-.93.93-1.63 3.14-2 5.14 2-.41 4.2-1.1 5.14-2a2.2 2.2 0 0 0 0-3.1 2.18 2.18 0 0 0 -1.59-.69z"/><path d="m60.42 76.11h17.91v3.6h-17.91z" transform="matrix(.00541049 -.99998536 .99998536 .00541049 -8.9 146.86)"/></g></svg>